<?xml version="1.0" encoding="UTF-8" standalone="no"?>
<!-- Created with Inkscape (http://www.inkscape.org/) -->

<svg
   version="1.1"
   id="svg182"
   width="512"
   height="512"
   viewBox="0 0 512 512"
   sodipodi:docname="logo-white.png"
   xml:space="preserve"
   inkscape:export-filename="../../../../RPT/m3t_marketing_static/public/logo-dark.svg"
   inkscape:export-xdpi="96"
   inkscape:export-ydpi="96"
   xmlns:inkscape="http://www.inkscape.org/namespaces/inkscape"
   xmlns:sodipodi="http://sodipodi.sourceforge.net/DTD/sodipodi-0.dtd"
   xmlns="http://www.w3.org/2000/svg"
   xmlns:svg="http://www.w3.org/2000/svg"><defs
     id="defs186" /><sodipodi:namedview
     id="namedview184"
     pagecolor="#ffffff"
     bordercolor="#000000"
     borderopacity="0.25"
     inkscape:showpageshadow="2"
     inkscape:pageopacity="0.0"
     inkscape:pagecheckerboard="0"
     inkscape:deskcolor="#d1d1d1"
     showgrid="false" /><g
     inkscape:groupmode="layer"
     inkscape:label="Image"
     id="g188"><rect
       style="fill:#0e84c1;fill-opacity:1;stroke-width:0.755906;stroke-linejoin:round"
       id="rect1108"
       width="548.11273"
       height="555.51038"
       x="-16.128103"
       y="-14.974883"
       rx="1.1980156"
       ry="1.1998987" /><path
       style="fill:#ffffff;fill-opacity:1;stroke-width:1"
       d="m 349.2312,364.43308 c -12.75139,-2.07642 -23.72747,-5.89519 -36.8773,-12.83023 -13.08535,-6.90105 -16.95052,-10.55155 -16.95052,-16.00908 0,-4.08022 3.74082,-7.82104 7.82103,-7.82104 2.59104,0 4.54361,0.93429 10.90762,5.21917 9.49648,6.39399 21.23593,11.43502 32.06139,13.76746 6.79425,1.46388 21.48157,1.87129 27.79841,0.77109 12.8732,-2.24212 23.7281,-7.75019 32.15572,-16.31668 8.6673,-8.81011 12.90651,-19.31593 12.24408,-30.34391 -0.48525,-8.07833 -2.97645,-14.91644 -7.80919,-21.43544 -10.11678,-13.64678 -27.25787,-21.94314 -48.46835,-23.45888 -8.06019,-0.57598 -10.65614,-1.45888 -12.35053,-4.20047 -1.44425,-2.33685 -1.39174,-6.5463 0.10986,-8.80586 1.91153,-2.87642 4.74775,-3.9357 10.57105,-3.94812 8.01478,-0.0171 18.86887,-0.85628 22.54637,-1.7432 4.50687,-1.08694 11.69586,-4.64219 15.36665,-7.59944 4.02186,-3.24009 7.41276,-7.55116 9.70088,-12.33339 2.49381,-5.21213 3.24096,-8.48709 3.18468,-13.95925 -0.22573,-21.94701 -21.26367,-37.4346 -48.84711,-35.96 -17.4993,0.9355 -29.30209,5.93308 -40.4916,17.14509 -2.28774,2.29235 -4.71406,4.37874 -5.39181,4.63642 -3.27878,1.24659 -7.76557,-0.0663 -9.84773,-2.8816 -1.35201,-1.82805 -1.61332,-5.53877 -0.53942,-7.65995 2.40326,-4.747 8.66872,-10.84919 15.95014,-15.53453 22.26809,-14.32873 52.69693,-16.81083 75.19653,-6.13385 11.96914,5.67985 22.64397,16.28051 27.21769,27.02858 3.10582,7.29856 3.75326,10.6277 3.76506,19.35984 0.009,6.86715 -0.14895,8.52839 -1.13749,11.94272 -3.76294,12.99691 -12.50809,23.15862 -26.84847,31.19746 l -4.34182,2.43391 2.21002,0.9501 c 5.91844,2.54438 13.75185,7.95488 19.58546,13.52759 23.5348,22.4822 24.12598,55.0045 1.4333,78.8506 -5.90372,6.20381 -11.56491,10.32025 -19.80583,14.40147 -7.41308,3.67125 -12.38138,5.44214 -19.8301,7.06821 -6.06774,1.3246 -23.86437,1.72133 -30.28867,0.67521 z m -209.07991,-3.30765 c -17.18327,-1.81136 -34.05591,-9.53115 -45.655845,-20.88908 -10.10905,-9.89814 -16.36058,-22.30703 -17.95167,-35.63293 -2.66241,-22.29866 11.12517,-44.79495 35.158995,-57.3666 l 4.18156,-2.1873 -4.05633,-2.28112 c -13.474025,-7.57726 -22.136625,-17.12075 -26.089405,-28.74241 -2.56623,-7.54501 -2.89013,-18.5128 -0.78217,-26.48582 5.18522,-19.61228 22.270175,-34.46094 45.544205,-39.58279 6.48445,-1.42701 24.66323,-1.27703 31.79129,0.26229 15.76621,3.40475 29.93605,10.83846 39.02476,20.47296 1.8305,1.94043 3.78213,4.41786 4.33696,5.50541 2.65639,5.20696 -0.17649,10.75975 -5.99044,11.74201 -2.87628,0.48594 -5.16797,-0.8119 -10.41547,-5.89853 -8.70702,-8.4401 -16.33857,-12.55567 -28.05457,-15.12938 -3.28806,-0.7223 -6.33337,-0.90885 -14.85467,-0.90996 -9.64397,-0.002 -11.14019,0.11377 -14.92221,1.1472 -14.92898,4.07936 -25.09103,12.69116 -29.15297,24.70564 -6.388305,18.89545 6.84903,39.39716 28.37454,43.9459 2.63743,0.55734 7.77775,0.9556 15.20209,1.17783 10.6995,0.32026 11.31852,0.39278 13.41113,1.5712 5.55407,3.1277 5.47797,11.38905 -0.13024,14.13726 -1.34951,0.66131 -3.76629,1.06417 -8.21941,1.37014 -15.16231,1.04177 -27.64555,5.13062 -37.94215,12.42785 -17.917195,12.69796 -24.150195,32.86028 -15.698085,50.77967 7.900335,16.74957 26.666225,28.06187 48.578755,29.28385 17.47193,0.97435 35.7408,-4.52208 53.07755,-15.96909 8.27857,-5.46612 10.62724,-5.94335 14.60043,-2.96671 2.08763,1.56401 3.11538,3.58938 3.11538,6.13943 0,5.43963 -3.95016,9.19122 -16.95052,16.09843 -20.56241,10.92499 -40.22609,15.3097 -59.53149,13.27465 z M 254.90791,336.9684 c -7.99024,-1.9369 -12.90958,-6.89667 -14.29986,-14.41736 -0.36722,-1.9865 -0.54314,-18.16792 -0.54314,-49.95907 v -47.02092 h -8.22599 -8.22599 v -7.72744 -7.72745 h 8.22599 8.22599 v -16.95052 -16.95052 h 9.47235 9.47235 v 16.95052 16.95052 h 10.22017 10.22016 v 7.72745 7.72744 H 269.20517 258.9604 l 0.14924,44.7444 c 0.14785,44.32678 0.159,44.763 1.19495,46.73857 1.55422,2.96389 3.44741,3.84238 8.8449,4.10428 2.51195,0.12188 5.85717,0.0114 7.43382,-0.2456 l 2.86663,-0.46719 v 7.86765 c 0,9.00334 0.5929,8.06786 -5.6447,8.90628 -5.35747,0.72012 -15.44379,0.58613 -18.89733,-0.25104 z"
       id="path1054" /></g></svg>
