<svg width="32" height="32" viewBox="125 0 191 217" fill="none" xmlns="http://www.w3.org/2000/svg">
<path d="M214.723 2.26809C217.56 0.629926 221.036 0.579068 223.913 2.11477L224.19 2.26809L243.762 13.5679C246.69 15.259 248.495 18.3842 248.495 21.7661V38.354L265.197 47.8238L280.752 38.8443C283.59 37.206 287.066 37.1549 289.943 38.6909L290.22 38.8443L309.791 50.1441C312.72 51.8351 314.524 54.9604 314.524 58.3423V80.9419C314.524 84.3242 312.72 87.45 309.791 89.1411L295.121 97.6099L295.495 116.868L311.372 126.035C314.301 127.726 316.105 130.852 316.105 134.234V156.833C316.105 160.215 314.301 163.341 311.372 165.032L291.801 176.332C288.872 178.023 285.262 178.023 282.333 176.332L267.297 167.65L251.173 177.378V196.148C251.173 199.53 249.368 202.655 246.438 204.346L226.867 215.646C223.938 217.337 220.329 217.337 217.4 215.646L197.829 204.346C194.9 202.655 193.096 199.53 193.096 196.148V178.54L176.569 169.707L160.354 179.07C157.424 180.761 153.815 180.761 150.886 179.07L131.314 167.77C128.386 166.079 126.581 162.953 126.581 159.571V136.972C126.581 133.59 128.385 130.464 131.314 128.773L146.517 119.996L145.817 101.165L129.733 91.8794C126.804 90.1882 125 87.0624 125 83.6802V61.0816C125 57.6995 126.804 54.5735 129.733 52.8824L149.305 41.5825C152.142 39.9443 155.619 39.8933 158.496 41.4292L158.772 41.5825L173.458 50.0611L190.418 39.5396V21.7661C190.418 18.3841 192.223 15.259 195.151 13.5679L214.723 2.26809ZM184.658 140.543V154.754L201.027 163.503L213.094 156.536L212.628 143.663C205.596 142.306 199.274 138.958 194.272 134.226L184.658 140.543ZM246.864 132.4C242.273 137.387 236.33 141.107 229.614 142.979L230.082 155.906L242.229 162.919L258.028 153.387V138.67L246.864 132.4ZM162.817 100.842L163.502 119.292L175.501 126.218L184.931 120.024C183.494 116.078 182.709 111.818 182.709 107.376C182.709 104.212 183.107 101.142 183.854 98.2115L175.214 93.6851L162.817 100.842ZM255.121 96.9068C256.1 100.226 256.627 103.739 256.627 107.376C256.627 110.916 256.128 114.341 255.198 117.584L266.451 123.904L278.494 116.951L278.144 98.9341L264.926 91.3033L255.121 96.9068ZM183.077 64.0991V78.6138L191.75 83.1568C196.733 77.4183 203.455 73.2322 211.097 71.4175L211.035 61.7339L198.528 54.5132L183.077 64.0991ZM228.035 61.6431L228.097 71.3824C235.342 73.0723 241.767 76.8953 246.678 82.1509L256.447 76.5689V62.4048L241.446 53.8999L228.035 61.6431Z" fill="#F44336"/>
</svg>
